<?xml version="1.0" encoding="UTF-8"?>
<svg width="270px" height="144px" viewBox="0 0 270 144" version="1.1" xmlns="http://www.w3.org/2000/svg" xmlns:xlink="http://www.w3.org/1999/xlink">
    <!-- Generator: Sketch 63.1 (92452) - https://sketch.com -->
    <title>full-color-white-bg</title>
    <desc>Created with Sketch.</desc>
    <g id="Page-1" stroke="none" stroke-width="1" fill="none" fill-rule="evenodd">
        <g id="Contentstack_Homepage" transform="translate(-219.000000, -5567.000000)" fill-rule="nonzero">
            <g id="Header" transform="translate(-11.000000, 0.000000)">
                <g id="full-color-white-bg" transform="translate(230.000000, 5567.000000)">
                    <path d="M212.483272,101.900157 C207.885285,101.900157 202.93072,97.7155774 201.523173,96.4338144 C199.139727,94.2472776 195.123527,89.8176555 195.123527,84.7848509 C195.134242,82.8940005 195.25959,81.0055601 195.498873,79.1300143 C192.325517,79.7677132 189.192231,80.5922284 186.115227,81.5992929 C186.115227,83.6350341 186.396737,85.369184 186.565642,86.8959899 C186.99729,91.1371174 187.428938,95.133202 184.50124,98.3941578 C182.725608,100.346342 180.188579,101.420692 177.557343,101.334673 C173.053193,101.334673 168.455206,98.8276953 164.2701,94.096482 C164.06366,93.8702885 163.388038,93.0974608 162.599811,92.0230418 C161.515482,92.3832615 160.382478,92.5739818 159.240466,92.5885255 C155.785636,92.6018593 152.661673,90.5274485 151.320669,87.3295274 L151.320669,87.1975812 L151.132996,86.8394416 L148.880921,86.8394416 C143.83252,86.8394416 138.971792,83.8423781 135.011893,78.3571866 L132.497076,77.7163051 L130.714184,77.2450687 C130.714184,77.5089611 130.714184,77.7728535 130.714184,78.0555953 C130.720846,80.2218301 129.847592,82.2970954 128.296168,83.8019478 C126.744744,85.3068002 124.649361,86.1110578 122.49411,86.028915 C118.52983,85.7083914 114.763964,84.1532778 111.721685,81.5804435 C109.092896,79.6140117 106.990759,77.0234091 105.603548,74.0406613 C102.452997,74.1828674 99.3168769,74.5545497 96.2199022,75.1527792 C94.3431731,78.5833801 90.5897149,82.3909701 85.7289864,82.3909701 C84.4105475,82.3886202 83.1159776,82.037556 81.9755282,81.3730995 C81.7878553,83.5030879 81.6752515,85.5953775 81.6752515,87.6688176 C81.6752515,92.0607408 78.2783718,96.5092123 71.8036563,96.5092123 C67.8902569,96.4087366 64.0872003,95.1856456 60.8435582,92.9843641 C57.806282,91.0483948 55.5466415,88.0980015 54.4626792,84.6529047 C53.5806165,86.0100655 52.8862267,87.0844845 52.5859501,87.6876671 C52.1658572,88.8751958 51.4560946,89.9380201 50.521548,90.7789778 C48.2131712,96.1322231 44.4972476,96.9615992 42.3765436,96.9615992 C37.8536265,96.9615992 32.992898,93.3425037 30.5156156,91.1748163 C28.4082733,89.4324368 26.5901714,87.364597 25.129403,85.0487433 C21.6762214,89.4406664 18.9174296,91.0428702 15.6519209,91.0428702 C11.8846154,90.9065539 8.33174228,89.2480846 5.799093,86.443603 C3.11537035,83.7481309 0,79.1111648 0,74.8511879 C0,73.117038 0.225207495,72.0991674 4.35401157,63.5415146 C6.68115568,58.7726023 9.68392228,52.8538733 12.6116197,47.3121334 C14.9762984,42.8071135 18.42948,36.3794492 21.4134793,31.3089456 C25.3921451,24.5608405 27.8881948,20.7344011 32.6738541,20.7344011 C33.5452214,20.7247556 34.4107583,20.8781661 35.2262057,21.186788 L35.2262057,21.0359924 C36.0895011,18.1708751 36.8777273,15.890091 37.5533498,14.2690378 C38.2289723,12.6479847 40.3121416,7.55863166 45.5669832,7.55863166 C48.1193348,7.55863166 51.6851201,8.97234083 56.2080373,11.7620602 C60.3931432,14.3444356 62.9267276,16.7006176 64.0902996,19.3018425 C69.3076066,12.1767483 71.8599582,9.87711469 75.7823221,9.87711469 L76.1576679,9.87711469 C79.2542709,6.10722359 82.6136161,4.33537477 86.3670743,4.33537477 C91.0588971,4.33537477 96.1260658,7.76597567 98.0966314,9.2362332 C100.887449,11.1654297 103.162643,13.7548407 104.721485,16.7760154 C108.793987,11.7997592 111.47771,9.36817939 114.630615,8.87809355 C116.807621,4.73121334 119.735318,2.62007432 123.357405,2.62007432 C127.279769,2.62007432 131.765152,5.88103012 134.842988,8.61420117 C139.516043,12.7799308 142.012093,16.8514132 142.2373,20.7344011 C149.068594,12.7799308 157.025926,8.48225498 165.17093,8.48225498 C171.101394,8.48225498 175.77445,14.2878873 179.17133,19.3583908 C179.546675,19.9238745 180.259832,20.979444 181.048059,22.3177553 C182.305467,20.1500679 183.544108,18.0954773 184.801517,16.2482307 C190.431704,7.53978221 192.965289,5.16475081 196.981489,5.16475081 C201.485639,5.16475081 206.271298,8.31260988 208.729813,10.1975554 C213.290265,13.7224036 215.823849,17.3414991 216.23673,21.0171429 C217.888251,17.8127355 219.521006,14.8533709 221.059924,12.2709955 C225.826816,4.31652531 229.355066,0 234.365933,0 C239.3768,0 244.124925,2.88396669 248.3851,8.35030879 C249.28593,9.50012558 253.752545,15.475403 253.752545,20.1312185 C253.752545,23.2602281 252.213627,25.0509264 248.516471,29.4051506 C243.765028,34.8449609 239.376445,40.5939875 235.379367,46.6147035 C241.647642,46.1057682 247.334131,45.8230264 251.91335,45.8230264 C260.996719,45.8230264 266.364165,46.6901013 268.691309,51.2328201 C271.018453,55.7755389 270.248994,61.9016119 266.32663,68.7439643 C265.857448,69.5544909 261.597273,76.8115312 257.262028,79.0546164 C256.023447,79.6805019 254.650744,79.9911978 253.264595,79.9593903 C250.968909,79.8488943 248.681638,79.603431 246.414534,79.2242615 C238.678643,78.0721352 230.883991,77.3610002 223.068024,77.0942731 C222.8084,79.1069837 222.676762,81.1342678 222.673911,83.1637977 C222.876682,87.1337055 222.662807,91.1140235 222.035823,95.0389547 C221.18222,99.3246998 217.315466,102.3239 212.971221,102.069802 L212.483272,101.900157 Z M166.578477,40.9598668 C164.311651,41.6638681 162.147239,42.6652511 160.141296,43.9380808 C154.809668,47.1715303 151.636313,53.0484683 151.846154,59.3003871 C152.897122,58.6406561 154.041927,57.8866779 155.149197,57.0761513 C157.308632,55.7164241 159.136493,53.8870028 160.497875,51.7229059 C160.610479,46.0680693 163.875987,43.2218015 167.310401,42.5997695 C167.004659,42.0831147 166.759072,41.5328677 166.578477,40.9598668 Z M210.606542,32.19487 L209.105159,34.0798156 C204.231491,39.7846059 199.7185,45.790499 195.592709,52.0621961 C197.994923,51.5721103 200.472205,51.1197234 203.099626,50.6673364 C204.976355,45.4083383 207.303499,39.847749 209.874618,34.0798156 C210.062291,33.4200846 210.325033,32.8734504 210.606542,32.19487 Z" id="Shape" fill="#231F20"></path>
                    <path d="M263.421863,48.8202017 C262.390203,46.8290738 259.932978,45.683236 250.291651,45.683236 C242.142183,45.7858823 234.003306,46.3062602 225.906972,47.2423267 C230.972501,38.3868614 236.944523,30.0833421 243.726545,22.4659335 C247.065371,18.5400304 247.965728,17.4881138 247.965728,15.9102389 C247.965728,13.5434265 245.658562,9.50481802 243.501456,6.7435369 C241.081746,3.68170817 237.273984,0 232.75344,0 C230.521304,0 228.101593,1.70936451 222.999568,10.2186186 C218.971419,17.1477726 215.333055,24.2969222 212.101493,31.6326355 C208.987757,38.6015831 206.474259,44.7815932 204.598514,50.1538817 C197.376898,51.3748563 191.186941,52.6333994 185.841069,53.9107267 C191.168184,43.2412867 199.177613,33.5674107 204.392183,27.2746952 C209.137816,21.6394276 210.488352,19.7610051 210.488352,17.8825825 C210.488352,14.5765589 207.262072,11.4020248 204.561,9.33576 C203.266736,8.35898028 198.839979,5.16566197 195.332337,5.16566197 C193.681681,5.16566197 192.068541,5.82310986 186.666397,14.2760113 C184.302959,18.0328563 181.751946,22.3907966 179.163419,27.0492845 C177.855134,23.6686291 176.155348,20.4533378 174.098909,17.4693296 C168.040254,8.47168563 164.720186,8.47168563 163.538467,8.47168563 C154.872527,8.47168563 146.26286,14.4262851 139.322605,25.2647831 C135.178346,31.6882659 132.247336,38.8193251 130.675423,46.3031155 C130.163698,46.0257807 129.587557,45.8896433 129.00601,45.9086467 L125.929789,45.9086467 C127.805534,40.2733791 130.319031,34.093369 132.30732,29.2658231 C135.402299,21.7521329 136.490231,18.9157149 136.490231,17.1499977 C136.490231,13.6373476 133.226435,9.99320788 130.469091,7.55125859 C129.174827,6.40542084 124.691798,2.62979155 121.746879,2.62979155 C118.80196,2.62979155 117.03876,5.33472 115.669467,8.92250704 C115.209233,8.80856348 114.736745,8.75178389 114.262658,8.75344901 C112.386914,8.75344901 110.511169,10.0307763 104.640089,17.3002715 C100.382149,22.6537758 95.5990001,29.34096 92.3352047,33.9994479 C90.4594601,36.5541025 88.7525326,39.1838941 87.0268477,41.7197645 C90.1405836,35.4834017 93.3105918,30.1486817 95.7490597,26.0537206 C98.9940977,20.6250794 100.025757,18.8217938 100.025757,17.1312135 C100.025757,15.4406332 98.9753403,12.172178 94.0233747,8.47168563 C91.3973324,6.5932631 87.6083285,4.41429296 84.7947117,4.41429296 C81.9810949,4.41429296 79.1674781,6.29271549 76.466406,10.1622659 C75.8182086,10.0172109 75.1597012,9.92300408 74.4968742,9.88050253 C72.6211297,9.88050253 71.1955639,10.7257927 65.512058,18.5212462 C62.6234114,22.503502 58.8344074,28.0448484 54.2575908,34.9762276 C54.7077695,33.680116 55.1204333,32.4403572 55.5143396,31.3320879 C58.6655904,22.1653859 59.3971308,19.8924946 59.3971308,18.6527358 C59.3971308,17.0560766 58.6093181,14.8958907 52.7194803,11.3268879 C50.9937953,10.256187 46.6795829,7.75788507 44.2786299,7.75788507 C41.8776769,7.75788507 40.7522302,10.3876766 40.0769622,11.9279831 C39.4016942,13.4682896 38.7076687,15.5721228 37.8823411,18.2958355 C37.3946475,19.8737104 36.8881965,21.6394276 36.3442306,23.5742028 L36.0816264,23.3863606 C33.624401,21.6582118 32.611499,20.9444113 31.2984778,20.9444113 C29.3289461,20.9444113 28.0159249,22.1090332 23.682955,29.4536653 C20.7380361,34.4314851 17.3241811,40.7242005 14.9795004,45.2136304 C12.0720964,50.6986242 9.08966264,56.4841656 6.78249687,61.2741431 C2.86219081,69.2762231 2.86219081,69.8773183 2.86219081,70.6662557 C2.86219081,73.2960473 5.16935658,76.9965397 7.43900745,79.2694309 C9.19955406,81.2706568 11.6834685,82.4873495 14.3417473,82.6505915 C16.4800961,82.6505915 19.1999256,81.5986749 26.4590569,69.3325757 C26.2203922,71.0448611 26.0825992,72.7697325 26.0463931,74.4982377 C26.0463931,76.3766602 27.0592952,79.5887628 31.9174735,83.777645 C33.2117372,84.9046985 37.6760092,88.530054 41.0711068,88.530054 C43.6408768,88.530054 44.8225958,86.1444574 45.4978639,83.9467031 C46.3585554,83.5018736 46.9870374,82.7083085 47.2235488,81.7677329 C48.1614211,80.0395842 53.4135058,72.2253464 58.8719223,64.185698 C57.8649509,68.5198331 57.1195561,72.9107684 56.6397863,77.3346557 L56.6397863,77.5037138 C57.1837523,84.02184 64.968092,88.02288 70.2952065,88.02288 C74.2530274,88.02288 75.9224401,85.6748518 75.9224401,83.3456078 C75.9412399,79.0045131 76.3429602,74.6735679 77.1229166,70.4032766 C77.8356995,70.2905712 78.6047547,70.1402974 79.3925674,69.9712394 C81.268312,72.9579312 82.5438182,73.9347109 84.2132309,73.9347109 C87.1393923,73.9347109 89.8404644,71.2297825 91.2285154,68.5624225 C91.4891875,68.0767929 91.7772681,67.6064256 92.0913579,67.1536056 C96.5319719,66.1963468 101.055083,65.6741882 105.596718,65.5945149 L107.228616,65.5945149 C108.035186,72.1502095 116.607339,77.6352033 120.977824,77.6352033 C122.026772,77.7248225 123.065054,77.3689421 123.839172,76.6544507 C124.61329,75.9399593 125.052,74.9326136 125.048189,73.8783583 C125.002241,72.5234688 124.858054,71.1737128 124.616768,69.8397498 C124.504223,69.1823019 124.391679,68.4685014 124.279134,67.6607797 C127.31784,68.2994433 129.906368,68.9756755 132.007201,69.5392022 C133.882946,69.9900236 135.02715,70.3281397 135.965022,70.4784135 C139.266333,75.606507 143.336698,78.5180619 147.332034,78.5180619 C149.212824,78.517524 151.091907,78.4046181 152.959268,78.1799459 C152.911146,79.175538 153.10421,80.1680142 153.521991,81.0727166 L153.521991,81.2042062 C154.174852,82.9793945 155.853504,84.1673353 157.742416,84.190898 C159.470631,84.0511623 161.150777,83.5521568 162.675624,82.7257284 C163.599192,84.2709415 164.660167,85.7295073 165.845633,87.0836687 C168.209071,89.7322445 171.904287,92.9067785 176.030925,92.9067785 C177.481829,92.9835471 178.89364,92.4207616 179.894959,91.3664721 C181.583129,89.4880495 181.320525,86.9521791 180.907861,83.1014129 C180.567106,80.2332241 180.379265,77.3488841 180.345138,74.4606693 C186.38852,72.2902502 192.635103,70.7358146 198.990038,69.8209656 C198.235514,73.3483078 197.820948,76.9400541 197.752047,80.5467583 C197.752047,86.1820259 206.811893,93.4703053 210.882259,93.4703053 L211.182378,93.4703053 C213.579428,93.7349205 215.770262,92.0915032 216.190616,89.7134602 C216.719374,86.1202313 216.895284,82.483764 216.715824,78.856178 C216.727449,75.4058549 217.072951,71.9647804 217.747484,68.5812067 C226.921603,68.7049737 236.077072,69.4454854 245.152111,70.7977453 C247.239107,71.1415029 249.342931,71.3735048 251.454613,71.4927617 C252.173131,71.5173066 252.887069,71.3691621 253.536689,71.0607245 C255.750068,69.9148867 258.920076,65.8387098 260.908365,62.3824124 C263.290561,58.437725 265.560212,52.9715155 263.421863,48.8202017 Z M146.356647,55.432249 C146.042297,47.676402 149.947314,40.3584194 156.560697,36.3099076 C160.629735,33.7646329 165.208806,32.1484464 169.972271,31.5762828 L169.972271,31.5762828 C169.31576,33.172942 168.621735,34.8259538 169.672151,36.4226129 C170.266263,37.3116417 171.267536,37.8412381 172.335709,37.8314298 C172.98532,37.8294256 173.626243,37.681803 174.211453,37.3993927 C173.236066,39.4468732 172.204407,41.6634118 171.172747,44.01144 C170.183645,43.0720209 168.894687,42.5131187 167.533803,42.433565 C166.839777,42.433565 163.425922,42.67776 163.425922,47.768285 C163.425922,49.3273757 161.550178,52.3704203 156.39188,56.183618 C153.6554,58.2048345 150.712822,59.9300856 147.613396,61.3304957 C146.686257,59.5084327 146.252903,57.4745916 146.356647,55.432249 Z" id="Shape" fill="#231F20"></path>
                    <path d="M5.72438163,71.2047969 C5.72438163,69.3391297 28.8975989,24.8056537 31.5188316,24.8056537 C32.3735814,24.8056537 37.8439803,29.3019117 39.1166078,29.3019117 L31.5188316,54.6563289 C31.5188316,54.6563289 18.50764,80.1413428 14.2148965,80.1413428 C9.92215294,80.1413428 5.72438163,73.4435975 5.72438163,71.2047969 Z" id="Path" fill="#FFC920"></path>
                    <path d="M44.018183,11.4487633 C46.2338831,11.4487633 56.2897527,17.0651377 56.2897527,19.3491299 C56.2897527,21.6331222 45.6468172,48.7976532 45.6468172,53.6090139 C45.6468172,58.4203747 43.9613702,85.8657244 40.7987897,85.8657244 C37.6362093,85.8657244 28.6219081,78.8452564 28.6219081,74.8389093 C28.6219081,63.8308154 41.2343547,11.4487633 44.018183,11.4487633 Z" id="Path" fill="#FFC920"></path>
                    <path d="M41.6327728,60.7730368 C41.6327728,60.7730368 71.1020329,13.3568905 74.4843639,13.3568905 C77.866695,13.3568905 84.9116608,16.0524787 84.9116608,19.0850155 C84.9116608,22.1175523 42.3615624,82.9180432 42.3615624,84.4530309 C42.3615624,86.3249672 32.3453776,82.2815848 32.4388122,75.6923691 C32.7191159,72.2105676 41.6327728,60.7730368 41.6327728,60.7730368 Z" id="Path" fill="#FFC920"></path>
                    <path d="M84.8789666,7.63250883 C88.4537035,7.63250883 97.3144876,13.5747416 97.3144876,17.3306812 C97.3144876,21.0866208 72.8047221,50.255883 72.8047221,83.2184574 C72.8047221,87.1238871 59.7417206,83.9285355 59.1519435,77.164107 C59.0762111,72.5485991 72.3293581,7.63250883 84.8789666,7.63250883 Z" id="Path" fill="#FFC920"></path>
                    <path d="M78.2332155,62.4963085 C78.2332155,59.5330849 110.635018,12.4028269 114.656787,12.4028269 C118.678556,12.4028269 124.028269,19.6983582 124.028269,22.4927906 C124.028269,25.2872229 92.2335259,60.9021692 88.723963,67.8038544 C87.6616088,69.829349 85.707636,71.5547703 84.2848402,71.5547703 C82.8620444,71.5547703 78.2332155,62.4963085 78.2332155,62.4963085 Z" id="Path" fill="#FFC920"></path>
                    <path d="M121.595444,5.72438163 C123.959631,5.72438163 133.568905,12.98944 133.568905,17.2102709 C133.568905,20.8147857 120.413351,45.9530083 120.413351,56.6171429 C120.413351,67.2812775 121.862369,70.5682962 121.862369,73.5938475 C121.862369,76.6193988 109.717314,70.7924111 109.717314,64.4424886 C109.717314,58.0925661 115.017668,5.72438163 121.595444,5.72438163 Z" id="Path" fill="#FFC920"></path>
                    <path d="M128.905568,49.6113074 C131.10716,49.6113074 139.447087,68.432247 136.90966,68.432247 C134.372232,68.432247 121.983615,63.4823399 105.546309,63.4823399 C89.109002,63.4823399 70.6007067,72.2905396 70.6007067,67.0018556 C70.6007067,61.7131716 72.1119687,57.7419533 73.9590667,56.2550991 C75.8061648,54.7682449 93.5495003,49.6113074 128.905568,49.6113074 Z" id="Path" fill="#FFC920"></path>
                    <path d="M164.329529,11.4487633 C168.66708,11.4487633 177.45583,26.1452597 177.45583,28.8446162 C177.45583,31.5439727 174.311579,34.8994228 172.947808,34.8994228 C171.584036,34.8994228 176.489826,28.4322145 172.947808,28.4322145 C165.106121,28.4322145 143.664602,33.6809633 143.664602,55.3507974 C143.664602,61.4243495 145.653436,64.4611256 147.566504,64.4611256 C149.479573,64.4611256 166.791895,55.3695429 166.791895,47.7776028 C166.791895,40.1856626 176.035235,52.8388962 176.035235,58.2938458 C176.035235,63.7487954 166.678247,75.3710247 147.812741,75.3710247 C140.918118,75.3710247 133.568905,62.5115903 133.568905,51.0018341 C133.568905,39.492078 146.733088,11.4487633 164.329529,11.4487633 Z" id="Path" fill="#FFC920"></path>
                    <path d="M195.894722,8.58657244 C199.373251,8.58657244 207.985866,14.8444231 207.985866,18.3691764 C207.985866,21.8939296 178.111439,48.847925 178.111439,74.6521346 C178.111439,85.7730139 180.752889,90.6360424 176.772112,90.6360424 C171.340398,90.6360424 165.053004,81.4943027 165.053004,79.3266737 C165.053004,56.0482231 192.825431,8.58657244 195.894722,8.58657244 Z" id="Path" fill="#FFC920"></path>
                    <path d="M233.040757,2.86219081 C239.071022,2.86219081 245.194346,13.5111093 245.194346,15.8293694 C245.194346,18.1476295 214.317158,45.9855987 214.317158,78.8747362 C214.317158,90.880685 213.982143,90.6360424 211.469533,90.6360424 C208.956923,90.6360424 201.30742,84.4536386 201.30742,80.6464147 C201.30742,56.8983841 227.866641,2.86219081 233.040757,2.86219081 Z" id="Path" fill="#FFC920"></path>
                    <path d="M260.861657,50.1648056 C263.672057,55.5798464 254.957931,67.0282546 252.449319,68.2649075 C249.940708,69.5015604 205.445855,57.3598771 169.816021,75.6286135 C156.801418,82.2990444 156.93345,81.8493525 155.764022,79.6008926 C154.594594,77.3524327 157.650196,67.0657289 161.837504,64.9671663 C187.640369,51.7387275 258.466216,45.5742 260.861657,50.1648056 Z" id="Path" fill="#FFC920"></path>
                    <path d="M44.8409894,143.109541 L34.2093241,143.109541 L34.2093241,141.990142 C34.7974445,141.936241 35.3811485,141.841148 35.9562232,141.705549 C36.6136583,141.572739 36.9517678,141.383011 36.9517678,141.174309 C36.9603249,141.092321 36.9603249,141.009651 36.9517678,140.927662 C36.9213027,140.799134 36.883675,140.672447 36.8390646,140.548205 L35.167301,136.469041 L28.4051111,136.469041 C28.2548402,136.848498 28.0857854,137.284874 27.8979468,137.797141 C27.7101082,138.309408 27.5410535,138.764757 27.4095664,139.163187 C27.2736923,139.525595 27.1730379,139.900493 27.1090247,140.282585 C27.0984319,140.446842 27.0984319,140.611622 27.1090247,140.775879 C27.1090247,141.079445 27.334431,141.326092 27.7852437,141.534794 C28.4956832,141.803675 29.2437587,141.957356 30.0017392,141.990142 L30.0017392,143.071595 L21.9434629,143.071595 L21.9434629,141.990142 C22.2844978,141.962034 22.6233366,141.911331 22.9577914,141.838359 C23.2737075,141.78112 23.5782541,141.672175 23.8594167,141.515821 C24.2229835,141.301786 24.5470998,141.025762 24.8173936,140.699988 C25.0949869,140.351221 25.3168172,139.960713 25.4748288,139.542644 L28.6680851,131.706854 L32.2182348,123.074205 L34.9606785,123.074205 C36.7639292,127.526502 38.1727188,131.055453 39.1870473,133.661058 C40.2013757,136.26034 41.0654333,138.404272 41.7792201,140.111829 C41.9064671,140.382128 42.064032,140.636768 42.2488166,140.870744 C42.4638919,141.131957 42.7250092,141.350672 43.0189549,141.515821 C43.30176,141.668446 43.6057108,141.777179 43.9205802,141.838359 C44.2231887,141.912156 44.530857,141.962893 44.8409894,141.990142 L44.8409894,143.109541 Z M34.5850013,135.121968 L31.7674222,128.007147 L28.9686269,135.121968 L34.5850013,135.121968 Z" id="Shape" fill="#231F20"></path>
                    <path d="M71.5547703,136.05167 L71.1655358,142.155477 L53.4275618,142.155477 L53.4275618,141.074022 L54.5396605,140.945713 C54.8271522,140.908896 55.1119455,140.853792 55.3922695,140.780746 C55.6677252,140.680906 55.9022375,140.494085 56.0595287,140.249183 C56.202978,139.984768 56.2733086,139.687591 56.2634135,139.387684 L56.2634135,125.951976 C56.2703618,125.674109 56.2133184,125.398318 56.0965987,125.145467 C55.9297038,124.886099 55.6827153,124.68684 55.3922695,124.577245 C55.0655188,124.439591 54.723274,124.341132 54.3728457,124.283969 L53.4275618,124.119001 L53.4275618,123.074205 L64.0110343,123.074205 L64.0110343,124.119001 L62.9730755,124.228979 C62.6284343,124.26957 62.2875687,124.336988 61.9536517,124.430607 C61.6511964,124.507937 61.3955778,124.707506 61.2493226,124.980499 C61.133662,125.246609 61.0767893,125.534073 61.0825078,125.823668 L61.0825078,138.342889 C61.0716281,138.809773 61.1088906,139.276538 61.1937176,139.73595 C61.2537019,140.037226 61.4256359,140.305351 61.675627,140.48747 C61.9646439,140.687681 62.3054472,140.802144 62.6579809,140.817405 C63.2382154,140.852044 63.8200343,140.852044 64.4002688,140.817405 C65.1067087,140.821478 65.8126274,140.778612 66.5132563,140.689097 C67.0482728,140.665485 67.561514,140.472741 67.9775196,140.139204 C68.5344493,139.560602 69.0140885,138.91379 69.4047129,138.21458 C69.8375142,137.479622 70.2273873,136.720749 70.5724165,135.941691 L71.5547703,136.05167 Z" id="Path" fill="#231F20"></path>
                    <path d="M99.2226148,136.05167 L98.8519153,142.155477 L81.0954064,142.155477 L81.0954064,141.074022 L82.22604,140.945713 C82.5075321,140.90953 82.7862027,140.854413 83.060114,140.780746 C83.34384,140.687037 83.5861081,140.499253 83.7459082,140.249183 C83.8735627,139.979834 83.9369751,139.685096 83.931258,139.387684 L83.931258,125.951976 C83.9371597,125.676015 83.8867279,125.401712 83.7829782,125.145467 C83.603186,124.890424 83.3519278,124.692917 83.060114,124.577245 C82.7342594,124.437124 82.3917008,124.338574 82.0406902,124.283969 L81.0954064,124.119001 L81.0954064,123.074205 L91.6788788,123.074205 L91.6788788,124.119001 L90.659455,124.228979 C90.3084575,124.26789 89.9612974,124.335327 89.6214962,124.430607 C89.3220287,124.513814 89.0685094,124.711744 88.9171671,124.980499 C88.8015065,125.246609 88.7446338,125.534073 88.7503523,125.823668 L88.7503523,138.342889 C88.7394726,138.809773 88.7767351,139.276538 88.8615621,139.73595 C88.9215464,140.037226 89.0934804,140.305351 89.3434716,140.48747 C89.6355193,140.681699 89.9745717,140.795574 90.3258254,140.817405 C90.9060599,140.852044 91.4878788,140.852044 92.0681133,140.817405 C92.7745533,140.821478 93.4804719,140.778612 94.1811008,140.689097 C94.7217442,140.665538 95.2409009,140.47301 95.6638991,140.139204 C96.2143143,139.559523 96.6876893,138.912759 97.0725574,138.21458 C97.5053587,137.479622 97.8952319,136.720749 98.240261,135.941691 L99.2226148,136.05167 Z" id="Path" fill="#231F20"></path>
                    <path d="M119.257951,142.155477 L108.763251,142.155477 L108.763251,141.074022 L109.820009,140.982373 C110.147654,140.969846 110.472277,140.914389 110.785667,140.817405 C111.059262,140.72346 111.295597,140.543534 111.459806,140.304172 C111.592195,140.043768 111.654984,139.7532 111.642005,139.461003 L111.642005,125.951976 C111.651146,125.671858 111.588396,125.394094 111.459806,125.145467 C111.310424,124.880584 111.071053,124.678821 110.785667,124.577245 C110.478308,124.458335 110.161318,124.366345 109.838229,124.302298 C109.41917,124.21065 109.05477,124.15566 108.763251,124.119001 L108.763251,123.074205 L119.257951,123.074205 L119.257951,124.119001 L118.255852,124.228979 C117.91082,124.26789 117.56956,124.335327 117.235534,124.430607 C116.941157,124.513814 116.691946,124.711744 116.543176,124.980499 C116.429481,125.246609 116.373575,125.534073 116.379196,125.823668 L116.379196,139.314365 C116.37016,139.600337 116.432818,139.883997 116.561396,140.139204 C116.717584,140.39414 116.955314,140.588055 117.235534,140.689097 C117.535141,140.804189 117.84694,140.884146 118.164753,140.927384 C118.602032,140.927384 118.966431,141.055692 119.257951,141.074022 L119.257951,142.155477 Z" id="Path" fill="#231F20"></path>
                    <path d="M151.696113,143.109541 L141.038218,143.109541 L141.038218,141.990142 C141.62779,141.936241 142.212934,141.841148 142.789427,141.705549 C143.448484,141.572739 143.787428,141.383011 143.787428,141.174309 C143.796006,141.092321 143.796006,141.009651 143.787428,140.927662 C143.756888,140.799134 143.719167,140.672447 143.674447,140.548205 L141.998559,136.469041 L135.238516,136.469041 C135.087874,136.848498 134.918402,137.284874 134.7301,137.797141 C134.541798,138.309408 134.372327,138.764757 134.240515,139.163187 C134.104306,139.525595 134.003403,139.900493 133.939232,140.282585 C133.928613,140.446842 133.928613,140.611622 133.939232,140.775879 C133.939232,141.079445 134.165194,141.326092 134.617119,141.534794 C135.329311,141.803675 136.079233,141.957356 136.839083,141.990142 L136.839083,143.071595 L128.798587,143.071595 L128.798587,141.990142 C129.146849,141.963503 129.492884,141.912789 129.834248,141.838359 C130.150943,141.78112 130.456241,141.672175 130.738097,141.515821 C131.102561,141.301786 131.427477,141.025762 131.698438,140.699988 C131.96992,140.346593 132.191698,139.957137 132.357495,139.542644 L135.558629,131.706854 L139.117538,123.074205 L141.772596,123.074205 C143.580296,127.526502 144.992561,131.055453 146.009392,133.661058 C147.026223,136.26034 147.892412,138.404272 148.60796,140.111829 C148.735521,140.382128 148.893474,140.636768 149.078715,140.870744 C149.294321,141.131957 149.556082,141.350672 149.850753,141.515821 C150.134256,141.668446 150.438957,141.777179 150.754603,141.838359 C151.057958,141.912156 151.366385,141.962893 151.677283,141.990142 L151.696113,143.109541 Z M141.414822,135.121968 L138.571462,128.007147 L135.784592,135.121968 L141.414822,135.121968 Z" id="Shape" fill="#231F20"></path>
                    <path d="M183.180212,124.239272 L182.075589,124.392068 C181.614703,124.461338 181.177534,124.644974 180.802464,124.926853 C180.417482,125.259177 180.159068,125.718819 180.072289,126.225616 C179.914695,127.113896 179.845694,128.016175 179.866343,128.91864 L179.866343,143.109541 L177.413705,143.109541 L165.300296,127.829971 L165.300296,137.150508 C165.273821,138.035025 165.349227,138.919655 165.524965,139.786234 C165.61642,140.29669 165.873617,140.760894 166.255139,141.104097 C166.606547,141.369924 167.008174,141.558523 167.434652,141.657982 C167.977602,141.810777 168.408218,141.925374 168.726499,141.982672 L168.726499,143.071342 L160.357575,143.071342 L160.357575,141.868076 C160.773605,141.826269 161.186422,141.756081 161.593255,141.657982 C162.006797,141.566582 162.400295,141.398244 162.754046,141.161396 C163.133933,140.857065 163.393243,140.422961 163.48422,139.93903 C163.648376,139.032313 163.717414,138.11034 163.690167,137.188707 L163.690167,127.791772 C163.695113,127.342148 163.618956,126.89543 163.465498,126.473909 C163.340957,126.065789 163.115246,125.69738 162.810213,125.404339 C162.48982,125.084257 162.115671,124.825489 161.70559,124.640361 C161.243193,124.46132 160.767334,124.320798 160.282686,124.220173 L160.282686,123.112404 L167.603154,123.112404 L178.237492,136.482027 L178.237492,128.975939 C178.265792,128.085047 178.190375,127.193876 178.012823,126.321113 C177.905908,125.817574 177.643404,125.362329 177.263926,125.02235 C176.908272,124.763916 176.508147,124.576022 176.084413,124.468466 C175.672214,124.342736 175.253421,124.240712 174.83001,124.162874 L174.83001,123.074205 L183.180212,123.074205 L183.180212,124.239272 Z" id="Path" fill="#231F20"></path>
                    <path d="M201.186862,143.107648 C199.796196,143.122712 198.414466,142.882613 197.109563,142.39915 C195.875986,141.95274 194.747375,141.255219 193.794375,140.350249 C192.849532,139.424249 192.109448,138.30854 191.622356,137.075838 C190.542843,134.325837 190.542843,131.266414 191.622356,128.516413 C192.13256,127.232381 192.897501,126.06617 193.870586,125.088813 C194.845323,124.132413 196.006505,123.389171 197.281038,122.905872 C198.643097,122.381169 200.090189,122.114967 201.548866,122.120779 C202.566274,122.109616 203.580024,122.245032 204.559208,122.5229 C205.350921,122.748916 206.117142,123.056945 206.845545,123.442033 L207.702921,122.676089 L208.9223,122.676089 L209.05567,129.933409 L207.817237,129.933409 C207.34924,128.136658 206.497534,126.463888 205.32132,125.031367 C204.400899,124.026281 203.098426,123.462288 201.739394,123.48033 C200.081783,123.429313 198.538703,124.327167 197.757358,125.797311 C196.737541,127.815051 196.264409,130.067125 196.385556,132.326985 C196.365665,133.695334 196.525825,135.060324 196.861876,136.386488 C197.106332,137.351842 197.519184,138.265979 198.081256,139.086441 C198.579856,139.75776 199.233848,140.296729 199.986536,140.656627 C201.930836,141.487218 204.161478,141.270962 205.911957,140.082169 C207.057712,139.222421 208.006345,138.125354 208.693666,136.865203 L209.893993,137.59285 C209.517724,138.37481 209.057738,139.113203 208.522191,139.79494 C208.013345,140.437588 207.41683,141.00487 206.750281,141.480017 C206.002129,142.002732 205.180017,142.4094 204.311522,142.686379 C203.297374,142.985819 202.243679,143.127879 201.186862,143.107648 L201.186862,143.107648 Z" id="Path" fill="#231F20"></path>
                    <path d="M236.181082,127.963552 L235.068807,127.963552 C234.753809,127.152231 234.278557,126.406232 233.668874,125.766093 C233.184624,125.150897 232.515742,124.691024 231.751159,124.447617 C231.358424,124.381537 230.960891,124.344801 230.562175,124.337744 L226.439086,124.337744 L226.439086,131.662609 L228.491042,131.662609 C228.964793,131.671035 229.437048,131.60926 229.890974,131.479487 C230.328892,131.360928 230.725973,131.133426 231.041604,130.820249 C231.32877,130.496019 231.549912,130.123372 231.693627,129.72152 C231.894792,129.289056 232.036598,128.833585 232.115525,128.36642 L233.151091,128.36642 L233.151091,136.313898 L232.07717,136.313898 C232.001398,135.828356 231.859567,135.354338 231.655273,134.903861 C231.514485,134.478547 231.293517,134.081368 231.003249,133.731883 C230.710745,133.414699 230.332626,133.180325 229.910151,133.054333 C229.435137,132.931118 228.944913,132.869524 228.452687,132.871211 L226.400732,132.871211 L226.400732,138.36486 C226.385052,138.82017 226.430161,139.275533 226.534972,139.71996 C226.588708,140.028994 226.767862,140.305342 227.033578,140.48907 C227.314183,140.686034 227.645661,140.806314 227.992436,140.837001 C228.547979,140.871724 229.105305,140.871724 229.660848,140.837001 L230.830655,140.837001 C231.233053,140.858767 231.636418,140.858767 232.038816,140.837001 C232.415103,140.801528 232.787332,140.734117 233.151091,140.635568 C233.435723,140.568834 233.699022,140.436837 233.918177,140.251012 C234.492516,139.629685 235.000061,138.954853 235.433173,138.236675 C235.848761,137.588687 236.220286,136.915853 236.545448,136.222337 L237.561837,136.222337 L237.178294,142.155477 L218.480565,142.155477 L218.480565,141.056747 L219.554486,140.946874 C219.878969,140.911929 220.199746,140.850667 220.513344,140.763753 C220.808286,140.662808 221.058505,140.469079 221.222899,140.214388 C221.363954,139.95482 221.430142,139.664089 221.414671,139.372029 L221.414671,125.949214 C221.420777,125.673518 221.368598,125.399478 221.261253,125.143479 C221.075232,124.888681 220.815268,124.691364 220.513344,124.575802 C220.179566,124.444552 219.832558,124.346373 219.477778,124.282808 C219.149145,124.208782 218.816136,124.153745 218.480565,124.117998 L218.480565,123.074205 L236.161905,123.074205 L236.181082,127.963552 Z" id="Path" fill="#231F20"></path>
                </g>
            </g>
        </g>
    </g>
</svg>